<svg width="230" height="79" viewBox="0 0 230 79" fill="none" xmlns="http://www.w3.org/2000/svg">
    <path d="M0 15C0 6.71573 6.71573 0 15 0H49C57.2843 0 64 6.71573 64 15V40C64 48.2843 57.2843 55 49 55H33.7879C31.2651 55 29.0633 56.7103 28.4393 59.1546C27.0536 64.5819 19.3992 64.7332 17.8002 59.3649L17.6963 59.0162C16.9865 56.6334 14.7957 55 12.3094 55H9.45261C4.23208 55 0 50.7679 0 45.5474V15Z" fill="black"/>
    <path d="M15.5369 17.6128L22.0142 35.9793H22.2699L28.7472 17.6128H31.517L23.5057 39.431H20.7784L12.767 17.6128H15.5369ZM34.9155 39.431V17.6128H42.2876C43.9922 17.6128 45.3913 17.904 46.4851 18.4864C47.5788 19.0617 48.3885 19.8536 48.9141 20.8621C49.4396 21.8707 49.7024 23.0177 49.7024 24.3032C49.7024 25.5887 49.4396 26.7286 48.9141 27.7229C48.3885 28.7173 47.5824 29.4985 46.4957 30.0667C45.4091 30.6278 44.0206 30.9083 42.3303 30.9083H36.3643V28.5219H42.245C43.4098 28.5219 44.3473 28.3515 45.0575 28.0106C45.7749 27.6697 46.2933 27.1867 46.6129 26.5617C46.9396 25.9296 47.103 25.1768 47.103 24.3032C47.103 23.4296 46.9396 22.6661 46.6129 22.0127C46.2862 21.3593 45.7642 20.855 45.0469 20.4999C44.3295 20.1377 43.3814 19.9566 42.2024 19.9566H37.5575V39.431H34.9155ZM45.1854 29.6299L50.5547 39.431H47.4865L42.2024 29.6299H45.1854Z" fill="white"/>
    <g filter="url(#filter0_d_9_64)">
        <path d="M87.31 39.431L78.43 18.431H86.05L93.28 36.161H88.75L96.19 18.431H103.15L94.27 39.431H87.31ZM111.503 39.731C109.503 39.731 107.753 39.361 106.253 38.621C104.773 37.881 103.623 36.871 102.803 35.591C101.983 34.291 101.573 32.831 101.573 31.211C101.573 29.551 101.973 28.081 102.773 26.801C103.593 25.521 104.703 24.521 106.103 23.801C107.523 23.081 109.113 22.721 110.873 22.721C112.493 22.721 113.983 23.041 115.343 23.681C116.723 24.321 117.823 25.271 118.643 26.531C119.483 27.791 119.903 29.351 119.903 31.211C119.903 31.451 119.893 31.721 119.873 32.021C119.853 32.301 119.833 32.561 119.813 32.801H107.183V29.531H116.213L113.663 30.401C113.663 29.761 113.543 29.221 113.303 28.781C113.083 28.321 112.773 27.971 112.373 27.731C111.973 27.471 111.493 27.341 110.933 27.341C110.373 27.341 109.883 27.471 109.463 27.731C109.063 27.971 108.753 28.321 108.533 28.781C108.313 29.221 108.203 29.761 108.203 30.401V31.421C108.203 32.121 108.343 32.721 108.623 33.221C108.903 33.721 109.303 34.101 109.823 34.361C110.343 34.601 110.973 34.721 111.713 34.721C112.473 34.721 113.093 34.621 113.573 34.421C114.073 34.221 114.593 33.921 115.133 33.521L118.673 37.091C117.873 37.951 116.883 38.611 115.703 39.071C114.543 39.511 113.143 39.731 111.503 39.731ZM122.043 39.431V23.021H128.493V27.971L127.443 26.561C127.943 25.281 128.743 24.321 129.843 23.681C130.943 23.041 132.263 22.721 133.803 22.721V28.721C133.503 28.681 133.233 28.651 132.993 28.631C132.773 28.611 132.543 28.601 132.303 28.601C131.283 28.601 130.443 28.871 129.783 29.411C129.143 29.931 128.823 30.841 128.823 32.141V39.431H122.043ZM135.725 39.431V23.021H142.175V27.971L141.125 26.561C141.625 25.281 142.425 24.321 143.525 23.681C144.625 23.041 145.945 22.721 147.485 22.721V28.721C147.185 28.681 146.915 28.651 146.675 28.631C146.455 28.611 146.225 28.601 145.985 28.601C144.965 28.601 144.125 28.871 143.465 29.411C142.825 29.931 142.505 30.841 142.505 32.141V39.431H135.725ZM157.93 39.731C156.07 39.731 154.42 39.371 152.98 38.651C151.56 37.911 150.44 36.901 149.62 35.621C148.8 34.341 148.39 32.871 148.39 31.211C148.39 29.551 148.8 28.081 149.62 26.801C150.44 25.521 151.56 24.521 152.98 23.801C154.42 23.081 156.07 22.721 157.93 22.721C159.79 22.721 161.44 23.081 162.88 23.801C164.32 24.521 165.44 25.521 166.24 26.801C167.06 28.081 167.47 29.551 167.47 31.211C167.47 32.871 167.06 34.341 166.24 35.621C165.44 36.901 164.32 37.911 162.88 38.651C161.44 39.371 159.79 39.731 157.93 39.731ZM157.93 34.451C158.43 34.451 158.88 34.331 159.28 34.091C159.68 33.851 160 33.491 160.24 33.011C160.48 32.511 160.6 31.911 160.6 31.211C160.6 30.491 160.48 29.901 160.24 29.441C160 28.961 159.68 28.601 159.28 28.361C158.88 28.121 158.43 28.001 157.93 28.001C157.43 28.001 156.98 28.121 156.58 28.361C156.18 28.601 155.86 28.961 155.62 29.441C155.38 29.901 155.26 30.491 155.26 31.211C155.26 31.911 155.38 32.511 155.62 33.011C155.86 33.491 156.18 33.851 156.58 34.091C156.98 34.331 157.43 34.451 157.93 34.451ZM191.312 22.721C192.552 22.721 193.662 22.981 194.642 23.501C195.642 24.001 196.422 24.791 196.982 25.871C197.562 26.951 197.852 28.351 197.852 30.071V39.431H191.072V31.241C191.072 30.221 190.902 29.501 190.562 29.081C190.222 28.641 189.782 28.421 189.242 28.421C188.842 28.421 188.482 28.521 188.162 28.721C187.842 28.921 187.582 29.241 187.382 29.681C187.202 30.101 187.112 30.681 187.112 31.421V39.431H180.332V31.241C180.332 30.221 180.172 29.501 179.852 29.081C179.532 28.641 179.082 28.421 178.502 28.421C178.102 28.421 177.742 28.521 177.422 28.721C177.102 28.921 176.842 29.241 176.642 29.681C176.462 30.101 176.372 30.681 176.372 31.421V39.431H169.592V23.021H176.042V27.731L174.722 26.411C175.342 25.171 176.172 24.251 177.212 23.651C178.252 23.031 179.412 22.721 180.692 22.721C182.132 22.721 183.402 23.101 184.502 23.861C185.622 24.601 186.372 25.781 186.752 27.401L184.682 27.071C185.282 25.711 186.152 24.651 187.292 23.891C188.452 23.111 189.792 22.721 191.312 22.721Z" fill="black"/>
    </g>
    <defs>
        <filter id="filter0_d_9_64" x="58.4301" y="8.43103" width="159.422" height="61.3" filterUnits="userSpaceOnUse" color-interpolation-filters="sRGB">
            <feFlood flood-opacity="0" result="BackgroundImageFix"/>
            <feColorMatrix in="SourceAlpha" type="matrix" values="0 0 0 0 0 0 0 0 0 0 0 0 0 0 0 0 0 0 127 0" result="hardAlpha"/>
            <feOffset dy="10"/>
            <feGaussianBlur stdDeviation="10"/>
            <feComposite in2="hardAlpha" operator="out"/>
            <feColorMatrix type="matrix" values="0 0 0 0 0 0 0 0 0 0 0 0 0 0 0 0 0 0 0.25 0"/>
            <feBlend mode="normal" in2="BackgroundImageFix" result="effect1_dropShadow_9_64"/>
            <feBlend mode="normal" in="SourceGraphic" in2="effect1_dropShadow_9_64" result="shape"/>
        </filter>
    </defs>
</svg>
